<svg width="116" height="90" viewBox="0 0 116 90" fill="none" xmlns="http://www.w3.org/2000/svg">
<path id="Vector" d="M4.14286 16.9062H111.857C114.145 16.9062 116 15.2834 116 13.2812V4.21875C116 2.21662 114.145 0.59375 111.857 0.59375H4.14286C1.85471 0.59375 0 2.21662 0 4.21875V13.2812C0 15.2834 1.85471 16.9062 4.14286 16.9062ZM4.14286 53.1562H111.857C114.145 53.1562 116 51.5334 116 49.5312V40.4688C116 38.4666 114.145 36.8438 111.857 36.8438H4.14286C1.85471 36.8438 0 38.4666 0 40.4688V49.5312C0 51.5334 1.85471 53.1562 4.14286 53.1562ZM4.14286 89.4062H111.857C114.145 89.4062 116 87.7834 116 85.7812V76.7188C116 74.7166 114.145 73.0938 111.857 73.0938H4.14286C1.85471 73.0938 0 74.7166 0 76.7188V85.7812C0 87.7834 1.85471 89.4062 4.14286 89.4062Z" fill="#ADADAD"/>
</svg>
